<?xml version="1.0" encoding="UTF-8"?>
<svg width="100pt" height="100pt" version="1.1" viewBox="0 0 100 100" xmlns="http://www.w3.org/2000/svg">
 <path d="m85.102 19.398h-43.5l-14.602-14.898c-2.6992-2.6992-7.1016-2.6992-9.8008 0l-12.102 12c-1.3008 1.3008-2 3-2 4.8984 0 1.8008 0.69922 3.6016 2 4.8984l15.902 16.004v43.301c0 6.5 5.3008 11.801 11.801 11.801h52.301c6.5 0 11.801-5.3008 11.801-11.801l-0.003906-54.301c0-6.6016-5.1992-11.902-11.797-11.902zm-22 35.203 5.5 12c0.39844 0.80078 0 1.3984-0.30078 1.6016-0.30078 0.30078-0.80078 0.60156-1.6016 0.30078l-12-5.6016zm-14.902 3.8984c-0.5-0.5-1.1016-0.89844-1.6016-1.3984l-21.699-22 10.801-10.699 21.699 22c0.5 0.5 0.89844 1.1016 1.3984 1.6992zm-26.199-47.801 8.1016 8.1016-10.801 10.699-8.1016-8.1016zm67.102 75c0 2.1992-1.8008 4-4 4h-52.301c-2.1992 0-4-1.8008-4-4v-35.5l12.199 12.402c3 3.1016 6.6016 5.6016 10.5 7.3984l12 5.6016c1.3008 0.60156 2.6016 0.89844 4 0.89844 2.3984 0 4.6992-0.89844 6.5-2.6992 2.8008-2.8008 3.5-6.8984 1.8984-10.398l-5.5-12c-1.8008-3.8984-4.3008-7.5-7.3008-10.5l-13.699-13.703h35.699c2.1992 0 4 1.8008 4 4.1016z"/>
</svg>
